<svg xmlns="http://www.w3.org/2000/svg" viewBox="0 0 1100 1368"><linearGradient id="a" x1="259.462" x2="266.444" y1="-51.385" y2="1414.797" gradientUnits="userSpaceOnUse"><stop offset="0" stop-color="#00ffcd"/><stop offset="1" stop-color="#0f0"/><stop offset="1" stop-color="#00ff39"/><stop offset="1" stop-color="#00ff39"/></linearGradient><path fill="url(#a)" d="M520.7 618.8c2.4 1.4 4.3 4.8 4.3 7.5v220.9c0 2.8-2 3.9-4.3 2.5L4.3 552.3C2 550.9 0 547.5 0 544.8V323.9c0-2.8 2-3.9 4.3-2.5l516.4 297.4z"/><linearGradient id="b" x1="834.454" x2="841.436" y1="-54.123" y2="1412.059" gradientUnits="userSpaceOnUse"><stop offset="0" stop-color="#00ffcd"/><stop offset="1" stop-color="#0f0"/><stop offset="1" stop-color="#00ff39"/><stop offset="1" stop-color="#00ff39"/></linearGradient><path fill="url(#b)" d="M1095.7 321.4c2.4-1.4 4.3-.3 4.3 2.5v220.9c0 2.8-1.9 6.1-4.3 7.5L579.3 849.7c-2.4 1.4-4.3.3-4.3-2.5V626.3c0-2.8 2-6.1 4.3-7.5l516.4-297.4z"/><linearGradient id="c" x1="525" x2="525" y1="1026.45" y2="1026.45" gradientUnits="userSpaceOnUse"><stop offset="0" stop-color="#00ffcd"/><stop offset="1" stop-color="#0f0"/><stop offset="1" stop-color="#00ff39"/><stop offset="1" stop-color="#00ff39"/></linearGradient><linearGradient id="d" x1="282.751" x2="289.733" y1="-51.496" y2="1414.686" gradientUnits="userSpaceOnUse"><stop offset="0" stop-color="#00ffcd"/><stop offset="1" stop-color="#0f0"/><stop offset="1" stop-color="#00ff39"/><stop offset="1" stop-color="#00ff39"/></linearGradient><path fill="url(#d)" d="M150 982V817.6c0-3.8 4.1-6.3 7.5-4.3l360 206.5c3.3 1.9 7.5-.5 7.5-4.3V912.9c0-1.8-1-3.4-2.5-4.3l-465-268.7c-3.3-1.9-7.5.5-7.5 4.3V983c.5 71 38.5 137 100 172.5l367.5 212c3.3 1.9 7.5-.5 7.5-4.3v-105.3c0-1.8-1-3.4-2.5-4.3l-322.2-184.8c-31.1-17.9-50.3-51-50.3-86.8z"/><linearGradient id="e" x1="807.469" x2="814.45" y1="-53.994" y2="1412.187" gradientUnits="userSpaceOnUse"><stop offset="0" stop-color="#00ffcd"/><stop offset="1" stop-color="#0f0"/><stop offset="1" stop-color="#00ff39"/><stop offset="1" stop-color="#00ff39"/></linearGradient><path fill="url(#e)" d="M725 826.2v103c0 3.8 4.2 6.3 7.5 4.3l210-120.2c3.3-1.9 7.5.5 7.5 4.3V982c0 35.8-19.2 68.9-50.2 86.7l-217.3 124.4c-3.3 1.9-7.5-.5-7.5-4.3v-328c0-3.8-4.2-6.3-7.5-4.3l-90 52c-1.5.9-2.5 2.5-2.5 4.3v450.3c0 3.8 4.2 6.3 7.5 4.3l367.5-212c61.5-35.8 100-101.3 100-172.5V644.1c0-3.8-4.2-6.3-7.5-4.3l-315 182a5.21 5.21 0 0 0-2.5 4.4z"/><linearGradient id="f" x1="677.884" x2="684.866" y1="-53.377" y2="1412.804" gradientUnits="userSpaceOnUse"><stop offset="0" stop-color="#00ffcd"/><stop offset="1" stop-color="#0f0"/><stop offset="1" stop-color="#00ff39"/><stop offset="1" stop-color="#00ff39"/></linearGradient><path fill="url(#f)" d="M579.9 289.3c-2.7.4-4.8-1.5-4.5-4.2 0 0 3.3-41.7 6.2-59.9 3.1-19.6 7.2-35.8 12.5-49.9 11.5-30.4 28.8-51.6 55.4-79.1 43.2-44.6 108.7-51 126.8-52 2.7-.1 5 1.9 5.2 4.5 1.5 15.7 2.4 40.6-3.3 69-2.2 10.9-5.3 22.2-9.8 33.8-4.2 11-14 28.8-14 28.8-1.3 2.4-3.6 6.3-5.1 8.6 0 0-15.4 24.3-43.3 47.2-23.2 19.1-47.5 31.5-69.8 39.6-24.1 8.7-56.3 13.6-56.3 13.6z"/><linearGradient id="g" x1="376.754" x2="383.736" y1="-51.943" y2="1414.238" gradientUnits="userSpaceOnUse"><stop offset="0" stop-color="#00ffcd"/><stop offset="1" stop-color="#0f0"/><stop offset="1" stop-color="#00ff39"/><stop offset="1" stop-color="#00ff39"/></linearGradient><path fill="url(#g)" d="M520 289.7c2.7.2 5.3-1.9 5.6-4.6 0 0 15.9-124.4-53.6-199-34-36.5-76.4-52.8-103-63-28-10.7-54.5-16.8-78.1-20C266-.4 233-.1 233-.1c-2.8 0-5 2.3-5 5.1 0 0 .3 38.6 7.7 70.7 7.6 32.7 22.3 70 50.3 104.3 28.3 34.6 59.7 53.3 78 64 35.2 20.6 69.8 32 99.4 38.4 24.7 5.3 56.6 7.3 56.6 7.3z"/><linearGradient id="h" x1="558.43" x2="565.412" y1="-52.809" y2="1413.373" gradientUnits="userSpaceOnUse"><stop offset="0" stop-color="#00ffcd"/><stop offset="1" stop-color="#0f0"/><stop offset="1" stop-color="#00ff39"/><stop offset="1" stop-color="#00ff39"/></linearGradient><path fill="url(#h)" d="M525 93c6.9 12.3 13.1 24.2 17 34 7.8 19.6 10 32 14 32 5 0 13.5-36.3 46-73 14-15.9 34.7-29 34.7-29 2.3-1.5 2.3-3.8-.1-5.2L554.3 4.5c-2.4-1.4-6.3-1.4-8.7 0l-64.3 37c-2.4 1.4-2.5 3.8-.3 5.4.1 0 30.2 21.4 44 46.1z"/><linearGradient id="i" x1="548.368" x2="555.35" y1="-52.761" y2="1413.421" gradientUnits="userSpaceOnUse"><stop offset="0" stop-color="#00ffcd"/><stop offset="1" stop-color="#0f0"/><stop offset="1" stop-color="#00ff39"/><stop offset="1" stop-color="#00ff39"/></linearGradient><path fill="url(#i)" d="M816.8 155.7c-2.4-1.4-5.2-.4-6.2 2.1 0 0-27.3 66.1-69.6 106.2-12.1 11.5-37 32.9-74 50-8.8 4.1-52 23.5-113 26-51.1 2.1-89.3-8.8-117-17-21.1-6.2-63.6-20.5-111-51-42.8-27.5-92.7-82-92.7-82-1.9-2-5.3-2.6-7.7-1.2L54.3 287.5c-2.4 1.4-2.4 3.6 0 5l491.3 283c2.4 1.4 6.3 1.4 8.7 0l491.3-283c2.4-1.4 2.4-3.6 0-5L816.8 155.7z"/></svg>